<svg width="640" height="900" viewBox="0 0 640 900" fill="none" xmlns="http://www.w3.org/2000/svg">
<g clip-path="url(#clip0_2537_30931)">
<rect width="640" height="900" fill="#F0F0F0"/>
<path d="M669 -46L1108.07 542.75L229.925 542.75L669 -46Z" fill="#51D9B8"/>
<path d="M608 580C608 681.977 573.667 780.984 510.534 861.069C447.401 941.153 359.144 997.65 259.984 1021.46C160.825 1045.26 56.5382 1034.99 -36.0715 992.297C-128.681 949.603 -204.22 876.974 -250.517 786.112C-296.814 695.25 -311.171 591.447 -291.277 491.429C-271.382 391.412 -218.393 301.005 -140.849 234.776C-63.3056 168.547 34.2776 130.354 136.176 126.35C238.074 122.346 338.353 152.766 420.854 212.706L154 580H608Z" fill="#6B38FD"/>
</g>
<defs>
<clipPath id="clip0_2537_30931">
<rect width="640" height="900" fill="white"/>
</clipPath>
</defs>
</svg>
