<svg width="24" height="24" viewBox="0 0 24 24" fill="none" xmlns="http://www.w3.org/2000/svg">
<path d="M20.8249 10.2373H20.1H12V13.8H17.0864C16.3443 15.8956 14.3503 17.4 12 17.4C9.01785 17.4 6.6 14.9822 6.6 12C6.6 9.01785 9.01785 6.6 12 6.6C13.3765 6.6 14.6289 7.1193 15.5824 7.96755L18.1281 5.4219C16.5207 3.92385 14.3706 3 12 3C7.02975 3 3 7.02975 3 12C3 16.9703 7.02975 21 12 21C16.9703 21 21 16.9703 21 12C21 11.3966 20.9379 10.8075 20.8249 10.2373Z" fill="#FBBC05"/>
<path d="M4.0378 7.81095L6.99475 9.9795C7.79485 7.9986 9.73255 6.6 12.0001 6.6C13.3766 6.6 14.629 7.1193 15.5825 7.96755L18.1282 5.4219C16.5208 3.92385 14.3707 3 12.0001 3C8.5432 3 5.5453 4.95165 4.0378 7.81095Z" fill="#EA4335"/>
<path d="M11.9999 20.9999C14.3246 20.9999 16.4369 20.1103 18.0339 18.6635L15.2484 16.3064C14.3448 16.9909 13.2216 17.3999 11.9999 17.3999C9.65896 17.3999 7.67131 15.9073 6.92251 13.8242L3.98761 16.0855C5.47711 19.0001 8.50201 20.9999 11.9999 20.9999Z" fill="#34A853"/>
<path d="M20.825 10.2373H20.1L12 10.2373V13.8H17.0864C16.73 14.8066 16.0824 15.6747 15.2472 16.3069L15.2485 16.306L18.034 18.6631C17.8369 18.8422 21 16.5 21 12C21 11.3965 20.9379 10.8075 20.825 10.2373Z" fill="#4285F4"/>
</svg>
