<svg width="19" height="18" viewBox="0 0 19 18" fill="none" xmlns="http://www.w3.org/2000/svg">
<path d="M15.8375 15.337H13.1702V11.16C13.1702 10.1639 13.1524 8.88165 11.7829 8.88165C10.3937 8.88165 10.1811 9.9669 10.1811 11.0874V15.3368H7.51384V6.74698H10.0744V7.92086H10.1103C10.3665 7.48272 10.7368 7.12228 11.1817 6.87793C11.6266 6.63359 12.1295 6.51449 12.6367 6.53332C15.3401 6.53332 15.8386 8.31151 15.8386 10.6248L15.8375 15.337ZM4.50425 5.57281C4.19811 5.57287 3.89882 5.48214 3.64425 5.3121C3.38967 5.14207 3.19124 4.90036 3.07403 4.61755C2.95683 4.33473 2.92612 4.02352 2.98579 3.72325C3.04546 3.42298 3.19283 3.14715 3.40927 2.93064C3.6257 2.71413 3.90148 2.56666 4.20172 2.50688C4.50197 2.4471 4.8132 2.4777 5.09606 2.5948C5.37891 2.71191 5.62069 2.91026 5.79081 3.16477C5.96094 3.41929 6.05177 3.71853 6.05183 4.02467C6.05187 4.22794 6.01187 4.42922 5.93411 4.61703C5.85636 4.80484 5.74237 4.9755 5.59867 5.11926C5.45496 5.26302 5.28435 5.37706 5.09657 5.45488C4.90878 5.5327 4.70752 5.57278 4.50425 5.57281ZM5.83789 15.337H3.16782V6.74698H5.83789V15.337ZM17.1672 0.000115541H1.82751C1.47934 -0.00381353 1.14385 0.130645 0.894767 0.373944C0.645685 0.617243 0.503387 0.949478 0.499138 1.29764V16.701C0.503242 17.0493 0.645452 17.3818 0.894525 17.6253C1.1436 17.8689 1.47917 18.0036 1.82751 17.9999H17.1672C17.5163 18.0043 17.8527 17.8699 18.1028 17.6264C18.3529 17.3828 18.496 17.05 18.5009 16.701V1.29653C18.4959 0.947676 18.3526 0.615064 18.1026 0.371771C17.8525 0.128478 17.5161 -0.00448543 17.1672 0.000115541Z" fill="#0A66C2"/>
</svg>
